<svg width="17.000000" height="17.000000" viewBox="0 0 17 17" fill="none" xmlns="http://www.w3.org/2000/svg" xmlns:xlink="http://www.w3.org/1999/xlink">
	<desc>
			Created with Pixso.
	</desc>
	<defs/>
	<path id="Vector" d="M11.75 10.25L10.96 10.25L10.68 9.98C11.66 8.84 12.25 7.36 12.25 5.75C12.25 2.16 9.34 -0.75 5.75 -0.75C2.16 -0.75 -0.75 2.16 -0.75 5.75C-0.75 9.34 2.16 12.25 5.75 12.25C7.36 12.25 8.84 11.66 9.98 10.68L10.25 10.96L10.25 11.75L15.25 16.74L16.74 15.25L11.75 10.25ZM5.75 10.25C3.26 10.25 1.25 8.24 1.25 5.75C1.25 3.26 3.26 1.25 5.75 1.25C8.24 1.25 10.25 3.26 10.25 5.75C10.25 8.24 8.24 10.25 5.75 10.25Z" fill="#0C0C0C" fill-opacity="1.000000" fill-rule="nonzero"/>
</svg>
